<svg width="952" height="952" viewBox="0 0 952 952" fill="none" xmlns="http://www.w3.org/2000/svg">
<circle cx="476" cy="476" r="453.5" fill="white" stroke="#1F2123" stroke-width="45"/>
<path d="M496.493 183.175L478.025 216.79L345.955 456.874L307.156 418.075L293.791 440.31L175.125 638.092L156.759 668.75H790.26L778.15 640.501L717.4 498.751L705.615 471.272L663.738 513.149L513.827 217.398L496.513 183.175H496.493ZM495.015 269.886L556.575 391.305L540.901 404.751L494.731 365.203L448.582 404.751L429.749 388.571L495.015 269.886V269.886ZM494.752 418.521L540.922 458.069L575.387 428.504L640.187 556.383L652.783 581.351L691.906 542.228L728.761 628.25H228.262C257.219 579.954 286.217 531.658 315.195 483.382L355.452 523.638L368.452 500.027C382.243 474.957 396.053 449.908 409.823 424.839L448.582 458.049L494.752 418.521V418.521Z" fill="black"/>
</svg>
