<svg width="952" height="952" viewBox="0 0 952 952" fill="none" xmlns="http://www.w3.org/2000/svg">
<circle cx="476" cy="476" r="453.5" fill="white" stroke="#972354" stroke-width="45"/>
<path d="M172.667 477.833H230.333V535.5H288V477.833H345.667V535.5H403.333V477.833H461V535.5H518.667V391.333L605.167 304.833V131.833H662.833L778.167 189.5L662.833 247.167V304.833L749.333 391.333V737.333H432.167V650.833C432.167 635.539 426.091 620.871 415.276 610.057C404.462 599.242 389.794 593.167 374.5 593.167C359.206 593.167 344.538 599.242 333.723 610.057C322.909 620.871 316.833 635.539 316.833 650.833V737.333H172.667V477.833ZM634 391.333C618.142 391.333 605.167 406.903 605.167 425.933V477.833H662.833V425.933C662.833 406.903 649.858 391.333 634 391.333Z" fill="#972354"/>
</svg>
