<svg width="952" height="952" viewBox="0 0 952 952" fill="none" xmlns="http://www.w3.org/2000/svg">
<circle cx="476" cy="476" r="453.5" fill="white" stroke="#14532D" stroke-width="45"/>
<g clip-path="url(#clip0_118_5)">
<path d="M668.509 412.001C652.136 411.937 636.479 414.956 622.073 420.496L544.393 295.343C542.24 291.874 539.237 289.011 535.668 287.026C532.1 285.042 528.084 284 524.001 284H460.001C451.164 284 444.001 291.163 444.001 300V316C444.001 324.837 451.164 332 460.001 332H510.65L525.546 356H412.002V340C412.002 331.163 404.839 324 396.002 324H308.543C295.102 324 283.766 334.999 284.007 348.437C284.239 361.481 294.883 372 308.002 372H356.728L327.311 419.52C313.878 414.69 299.407 412.037 284.319 412C214.094 411.83 156.412 469.012 156.002 539.236C155.587 610.279 213.055 668 284.002 668C343.644 668 393.76 627.207 407.969 572H460.002C464.09 572 468.11 570.956 471.681 568.967C475.252 566.977 478.256 564.109 480.408 560.633L566.37 421.77L581.308 445.837C555.853 469.285 539.923 502.918 540.001 540.274C540.146 609.107 597.9 667.325 666.73 667.993C737.336 668.678 794.911 612.19 795.985 541.997C797.071 471.056 739.459 412.277 668.509 412.001V412.001ZM342.75 485.772C352.477 496.301 359.423 509.433 362.392 524H319.086L342.75 485.772ZM284.002 620C239.89 620 204.002 584.112 204.002 540C204.002 495.888 239.89 460 284.002 460C289.871 460 295.588 460.653 301.101 461.859L255.596 535.368C245.715 551.327 257.213 572 276.002 572H357.302C344.932 600.225 316.74 620 284.002 620ZM446.632 524H411.008C407.048 492.244 391.452 464.106 368.625 443.974L393.371 404H520.918L446.632 524ZM663.689 619.886C622.653 617.721 589.64 584.194 588.062 543.131C587.25 522.01 594.695 502.613 607.397 487.868L651.83 559.454C656.49 566.962 666.354 569.27 673.862 564.61L687.456 556.173C694.964 551.513 697.273 541.649 692.612 534.141L648.144 462.498C654.633 460.837 661.304 459.998 668.002 460.001C712.114 460.001 748.002 495.889 748.002 540.001C748.001 585.541 709.75 622.317 663.689 619.886V619.886Z" fill="#14532D"/>
</g>
<defs>
<clipPath id="clip0_118_5">
<rect width="640" height="512" fill="white" transform="translate(156 220)"/>
</clipPath>
</defs>
</svg>
