<svg width="952" height="952" viewBox="0 0 952 952" fill="none" xmlns="http://www.w3.org/2000/svg">
<circle cx="476" cy="476" r="453.5" fill="white" stroke="#235897" stroke-width="45"/>
<path d="M625.48 509.33C619.168 508.32 594.927 501.25 588.615 498.473L536.348 662.093L458.325 633.56L513.875 487.868L436.862 400.25L501.25 363.385C512.612 391.917 530.792 415.905 554.78 435.6C578.767 455.295 606.29 467.667 637.095 472.465L665.375 385.858L629.015 373.99L615.885 414.39C599.22 407.32 584.575 396.715 571.95 383.08C559.325 369.192 550.235 353.032 544.68 334.852L536.348 307.582C533.318 297.482 527.51 289.402 519.178 283.342C510.845 277.535 501.25 274 491.908 273.243C482.06 272.485 472.465 274 463.375 279.303L375 330.308C365.657 335.61 358.84 343.185 354.548 352.78C349.75 362.375 348.74 371.97 349.75 382.322C350.76 392.675 356.315 401.765 363.385 409.592L453.527 503.27L410.855 615.885L235.368 553.013L223.5 588.615L578.01 717.895C613.117 730.136 651.044 731.804 687.09 722.693C701.988 718.653 715.875 713.098 728.5 706.028L699.968 678C681.03 686.333 661.335 690.625 640.883 690.625C624.218 690.625 607.552 687.848 590.887 682.293L571.95 675.222L625.48 509.33ZM652.75 248.75C652.75 276.778 630.278 299.25 602.25 299.25C574.222 299.25 551.75 276.778 551.75 248.75C551.75 220.722 574.475 198.25 602.25 198.25C630.025 198.25 652.75 220.975 652.75 248.75Z" fill="#235897"/>
</svg>
